<svg width="54" height="54" viewBox="0 0 54 54" fill="none" xmlns="http://www.w3.org/2000/svg">
<path fill-rule="evenodd" clip-rule="evenodd" d="M0.5083 26.9989C0.5083 12.3682 12.3689 0.507568 26.9996 0.507568C41.6304 0.507568 53.4908 12.3682 53.4908 26.9989C53.4908 41.6296 41.6304 53.4904 26.9996 53.4904C12.3689 53.4904 0.5083 41.6296 0.5083 26.9989ZM26.9996 4.30756C14.4676 4.30756 4.30832 14.4668 4.30832 26.9989C4.30832 39.5308 14.4676 49.6904 26.9996 49.6904C39.5316 49.6904 49.6908 39.5308 49.6908 26.9989C49.6908 14.4668 39.5316 4.30756 26.9996 4.30756ZM29.9997 39C29.9997 40.6568 28.6566 42 26.9997 42C25.3428 42 23.9997 40.6568 23.9997 39C23.9997 37.3432 25.3428 36 26.9997 36C28.6566 36 29.9997 37.3432 29.9997 39ZM21.2001 22C21.2001 19.2884 23.5404 16.7 27.0001 16.7C30.4598 16.7 32.8001 19.2884 32.8001 22C32.8001 23.9647 31.7201 24.9685 29.8579 26.0998C29.65 26.226 29.4103 26.3652 29.1539 26.5142C28.4211 26.9397 27.5515 27.4448 26.898 27.954C25.9286 28.7093 24.8001 29.9279 24.8001 31.8C24.8002 33.015 25.7851 34 27.0002 34C28.2096 34 29.1911 33.024 29.2001 31.8167L29.2022 31.8132C29.237 31.7584 29.3397 31.6294 29.6023 31.4248C30.0083 31.1085 30.4603 30.8465 31.0627 30.4974C31.3767 30.3154 31.7318 30.1096 32.1424 29.8602C34.2802 28.5615 37.2 26.4153 37.2 22C37.2 16.7116 32.7404 12.3 27.0001 12.3C21.2598 12.3 16.8001 16.7116 16.8001 22C16.8001 23.215 17.7851 24.2 19.0001 24.2C20.2152 24.2 21.2001 23.215 21.2001 22Z" fill="#A3A3A3"/>
</svg>
